<?xml version="1.0" encoding="UTF-8"?>
<svg width="525px" height="77px" viewBox="0 0 525 77" version="1.1" xmlns="http://www.w3.org/2000/svg" xmlns:xlink="http://www.w3.org/1999/xlink">
    <!-- Generator: Sketch 56.3 (81716) - https://sketch.com -->
    <title>brand/white</title>
    <desc>Created with Sketch.</desc>
    <g id="brand/white" stroke="none" stroke-width="1" fill="none" fill-rule="evenodd">
        <path d="M32.6583,43.5526 C33.3393,41.9886 33.6763,40.3166 33.6763,38.5436 C33.6763,36.7706 33.3393,35.1036 32.6583,33.5356 C31.9763,31.9726 31.0563,30.5966 29.8853,29.4176 C28.7153,28.2306 27.3443,27.2956 25.7623,26.6056 C24.1863,25.9156 22.4973,25.5706 20.6983,25.5706 C18.8773,25.5706 17.1783,25.9156 15.5973,26.6056 C14.0213,27.2956 12.6553,28.2256 11.4973,29.3956 C10.3363,30.5656 9.4193,31.9416 8.7423,33.5176 C8.0653,35.0986 7.7293,36.7706 7.7293,38.5436 C7.7293,40.3166 8.0653,41.9936 8.7423,43.5696 C9.4193,45.1466 10.3363,46.5216 11.4973,47.6926 C12.6553,48.8616 14.0213,49.7916 15.5973,50.4816 C17.1783,51.1716 18.8773,51.5166 20.6983,51.5166 C22.4973,51.5166 24.1863,51.1716 25.7623,50.4816 C27.3443,49.7916 28.7153,48.8576 29.8853,47.6736 C31.0563,46.4906 31.9763,45.1146 32.6583,43.5526 Z M35.3393,23.9076 C37.3563,25.9026 38.8723,28.1246 39.8843,30.5786 C40.8933,33.0336 41.4003,35.6876 41.4003,38.5436 C41.4003,44.3076 39.3783,49.1896 35.3393,53.1806 C33.2693,55.2286 31.0163,56.7486 28.5933,57.7436 C26.1693,58.7436 23.5323,59.2406 20.6983,59.2406 C15.7463,59.2406 11.4273,57.7256 7.7293,54.6956 L7.7293,73.1396 C7.7293,74.2486 7.3493,75.1656 6.5983,75.8956 C5.8473,76.6206 4.9293,76.9816 3.8473,76.9816 C2.7343,76.9816 1.8213,76.6206 1.0963,75.8956 C0.3673,75.1656 0.0003,74.2486 0.0003,73.1396 L0.0003,38.5436 C0.0003,32.8276 2.0223,27.9506 6.0653,23.9076 C10.1053,19.8676 14.9823,17.8466 20.6983,17.8466 C26.3663,17.8466 31.2433,19.8676 35.3393,23.9076 Z M75.7476,18.8641 C76.7956,19.2431 77.6646,19.7671 78.3546,20.4361 C79.0436,21.0991 79.3846,21.9601 79.3846,23.0211 C79.3846,23.5661 79.2846,24.0691 79.0746,24.5361 C78.8646,25.0031 78.5856,25.4181 78.2406,25.7761 C77.8956,26.1301 77.4856,26.4091 77.0226,26.6061 C76.5556,26.8021 76.0486,26.9021 75.5076,26.9021 C75.0396,26.9021 74.4986,26.7671 73.8826,26.4971 C72.3286,25.8811 70.6436,25.5711 68.8176,25.5711 C67.0186,25.5711 65.3286,25.9111 63.7566,26.5881 C62.1766,27.2651 60.8006,28.1901 59.6306,29.3611 C58.4596,30.5311 57.5386,31.9061 56.8576,33.4831 C56.1806,35.0601 55.8446,36.7491 55.8446,38.5441 L55.8446,55.3991 C55.8446,56.4601 55.4696,57.3641 54.7176,58.1141 C53.9666,58.8651 53.0586,59.2401 52.0016,59.2401 C50.9146,59.2401 49.9976,58.8651 49.2466,58.1141 C48.4906,57.3641 48.1196,56.4601 48.1196,55.3991 L48.1196,21.6891 C48.1196,20.6321 48.4906,19.7281 49.2466,18.9731 C49.9976,18.2221 50.9146,17.8461 52.0016,17.8461 C53.0586,17.8461 53.9666,18.2221 54.7176,18.9731 C55.4696,19.7281 55.8446,20.6321 55.8446,21.6891 L55.8446,22.4311 C57.6916,20.9511 59.6996,19.8161 61.8656,19.0301 C64.0356,18.2391 66.3506,17.8461 68.8176,17.8461 C69.9006,17.8461 71.0616,17.9211 72.3106,18.0691 C73.5556,18.2171 74.6996,18.4841 75.7476,18.8641 Z M113.5533,43.5521 C114.2303,41.9891 114.5663,40.3171 114.5663,38.5441 C114.5663,36.7711 114.2303,35.1031 113.5533,33.5361 C112.8723,31.9721 111.9503,30.5971 110.7843,29.4181 C109.6103,28.2301 108.2353,27.2961 106.6583,26.6061 C105.0823,25.9161 103.3923,25.5711 101.5933,25.5711 C99.7723,25.5711 98.0733,25.9161 96.4933,26.6061 C94.9213,27.2961 93.5493,28.2261 92.3933,29.3961 C91.2353,30.5661 90.3143,31.9421 89.6373,33.5181 C88.9613,35.0991 88.6243,36.7711 88.6243,38.5441 C88.6243,40.3171 88.9613,41.9941 89.6373,43.5691 C90.3143,45.1461 91.2353,46.5221 92.3933,47.6921 C93.5493,48.8621 94.9213,49.7921 96.4933,50.4821 C98.0733,51.1711 99.7723,51.5161 101.5933,51.5161 C103.3923,51.5161 105.0823,51.1711 106.6583,50.4821 C108.2353,49.7921 109.6103,48.8581 110.7843,47.6741 C111.9503,46.4911 112.8723,45.1151 113.5533,43.5521 Z M116.2343,23.9071 C118.2523,25.9291 119.7623,28.1561 120.7633,30.5971 C121.7583,33.0381 122.2693,35.6881 122.2953,38.5441 C122.2953,44.3081 120.2733,49.1901 116.2343,53.1811 C112.1433,57.2201 107.2653,59.2401 101.5933,59.2401 C95.8813,59.2401 91.0003,57.2201 86.9613,53.1811 C82.9173,49.1371 80.8993,44.2591 80.8993,38.5441 C80.8993,32.8281 82.9173,27.9511 86.9613,23.9071 C91.0003,19.8681 95.8813,17.8461 101.5933,17.8461 C107.2653,17.8461 112.1433,19.8681 116.2343,23.9071 Z M161.5567,43.5526 C162.2367,41.9886 162.5727,40.3166 162.5727,38.5436 C162.5727,36.7706 162.2367,35.1036 161.5567,33.5356 C160.8797,31.9726 159.9577,30.5966 158.7867,29.4176 C157.6167,28.2306 156.2417,27.2956 154.6617,26.6056 C153.0897,25.9156 151.3987,25.5706 149.5997,25.5706 C147.7787,25.5706 146.0757,25.9156 144.4987,26.6056 C142.9227,27.2956 141.5557,28.2256 140.3937,29.3956 C139.2367,30.5656 138.3197,31.9416 137.6437,33.5176 C136.9667,35.0986 136.6297,36.7706 136.6297,38.5436 C136.6297,40.3166 136.9667,41.9936 137.6437,43.5696 C138.3197,45.1466 139.2367,46.5216 140.3937,47.6926 C141.5557,48.8616 142.9227,49.7916 144.4987,50.4816 C146.0757,51.1716 147.7787,51.5166 149.5997,51.5166 C151.3987,51.5166 153.0897,51.1716 154.6617,50.4816 C156.2417,49.7916 157.6167,48.8576 158.7867,47.6736 C159.9577,46.4906 160.8797,45.1146 161.5567,43.5526 Z M164.2367,23.9076 C166.2547,25.9026 167.7737,28.1246 168.7867,30.5786 C169.7917,33.0336 170.3027,35.6876 170.3027,38.5436 C170.3027,44.3076 168.2797,49.1896 164.2367,53.1806 C162.1717,55.2286 159.9187,56.7486 157.4907,57.7436 C155.0667,58.7436 152.4337,59.2406 149.5997,59.2406 C144.6467,59.2406 140.3247,57.7256 136.6297,54.6956 L136.6297,73.1396 C136.6297,74.2486 136.2507,75.1656 135.4997,75.8956 C134.7487,76.6206 133.8307,76.9816 132.7477,76.9816 C131.6347,76.9816 130.7177,76.6206 129.9927,75.8956 C129.2637,75.1656 128.9017,74.2486 128.9017,73.1396 L128.9017,38.5436 C128.9017,32.8276 130.9187,27.9506 134.9577,23.9076 C139.0057,19.8676 143.8827,17.8466 149.5997,17.8466 C155.2677,17.8466 160.1447,19.8676 164.2367,23.9076 Z M185.1172,34.7015 L210.0302,34.7015 C209.6102,33.3435 208.9852,32.1075 208.1602,30.9855 C207.3342,29.8635 206.3782,28.9025 205.2782,28.1035 C204.1832,27.3005 202.9732,26.6795 201.6582,26.2345 C200.3352,25.7935 198.9812,25.5705 197.5752,25.5705 C196.1692,25.5705 194.8042,25.7935 193.4712,26.2345 C192.1392,26.6795 190.9212,27.3005 189.8122,28.1035 C188.7032,28.9025 187.7412,29.8635 186.9292,30.9855 C186.1172,32.1075 185.5102,33.3435 185.1172,34.7015 Z M212.2082,23.9075 C214.2292,25.9025 215.7492,28.1255 216.7542,30.5795 C217.7662,33.0335 218.2692,35.6875 218.2692,38.5435 C218.2692,39.6525 217.8972,40.5695 217.1422,41.2985 C216.3912,42.0235 215.4752,42.3905 214.3872,42.3905 L185.1172,42.3905 C185.5372,43.7445 186.1482,44.9845 186.9642,46.1025 C187.7782,47.2245 188.7342,48.1845 189.8302,48.9845 C190.9252,49.7875 192.1352,50.4075 193.4482,50.8525 C194.7732,51.2945 196.1442,51.5165 197.5752,51.5165 C199.1992,51.5165 200.6902,51.2715 202.0422,50.7795 C203.4052,50.2855 204.6582,49.5475 205.8162,48.5615 C206.5572,47.9445 207.4052,47.6255 208.3702,47.5995 C209.4752,47.5995 210.3952,47.9625 211.1162,48.6915 C211.8452,49.4165 212.2082,50.3335 212.2082,51.4435 C212.2082,52.5265 211.8412,53.4515 211.0992,54.2155 C207.2822,57.5685 202.7712,59.2415 197.5752,59.2415 C191.8552,59.2415 186.9782,57.2205 182.9352,53.1805 C178.8962,49.1375 176.8782,44.2595 176.8782,38.5435 C176.8782,32.8285 178.8962,27.9505 182.9352,23.9075 C186.9782,19.8675 191.8552,17.8465 197.5752,17.8465 C203.2442,17.8465 208.1212,19.8675 212.2082,23.9075 Z M252.7086,18.8641 C253.7566,19.2431 254.6246,19.7671 255.3146,20.4361 C256.0006,21.0991 256.3506,21.9601 256.3506,23.0211 C256.3506,23.5661 256.2406,24.0691 256.0356,24.5361 C255.8216,25.0031 255.5506,25.4181 255.2066,25.7761 C254.8556,26.1301 254.4546,26.4091 253.9826,26.6061 C253.5156,26.8021 253.0096,26.9021 252.4676,26.9021 C252.0016,26.9021 251.4556,26.7671 250.8436,26.4971 C249.2896,25.8811 247.5986,25.5711 245.7796,25.5711 C243.9756,25.5711 242.2946,25.9111 240.7136,26.5881 C239.1376,27.2651 237.7656,28.1901 236.5956,29.3611 C235.4206,30.5311 234.4956,31.9061 233.8226,33.4831 C233.1416,35.0601 232.8056,36.7491 232.8056,38.5441 L232.8056,55.3991 C232.8056,56.4601 232.4296,57.3641 231.6796,58.1141 C230.9276,58.8651 230.0186,59.2401 228.9626,59.2401 C227.8756,59.2401 226.9586,58.8651 226.2076,58.1141 C225.4556,57.3641 225.0776,56.4601 225.0776,55.3991 L225.0776,21.6891 C225.0776,20.6321 225.4556,19.7281 226.2076,18.9731 C226.9586,18.2221 227.8756,17.8461 228.9626,17.8461 C230.0186,17.8461 230.9276,18.2221 231.6796,18.9731 C232.4296,19.7281 232.8056,20.6321 232.8056,21.6891 L232.8056,22.4311 C234.6526,20.9511 236.6646,19.8161 238.8306,19.0301 C240.9966,18.2391 243.3106,17.8461 245.7796,17.8461 C246.8616,17.8461 248.0266,17.9211 249.2706,18.0691 C250.5166,18.2171 251.6596,18.4841 252.7086,18.8641 Z M285.2569,51.516 C286.3139,51.516 287.2139,51.892 287.9509,52.648 C288.6939,53.399 289.0599,54.303 289.0599,55.364 C289.0599,56.447 288.6939,57.364 287.9509,58.115 C287.2139,58.867 286.3139,59.242 285.2569,59.242 C275.1739,59.242 270.1399,54.215 270.1399,44.164 L270.1399,26.204 L265.8699,26.204 C264.8349,26.204 263.9379,25.828 263.1839,25.077 C262.4369,24.326 262.0609,23.409 262.0609,22.322 C262.0609,21.265 262.4369,20.361 263.1839,19.606 C263.9379,18.855 264.8349,18.479 265.8699,18.479 L270.1399,18.479 L270.1399,3.843 C270.1399,2.786 270.5149,1.882 271.2669,1.127 C272.0169,0.376 272.9349,-1.42108547e-14 274.0179,-1.42108547e-14 C275.0749,-1.42108547e-14 275.9819,0.376 276.7369,1.127 C277.4839,1.882 277.8629,2.786 277.8629,3.843 L277.8629,18.479 L285.0159,18.479 C286.0719,18.479 286.9769,18.855 287.7119,19.606 C288.4539,20.361 288.8199,21.265 288.8199,22.322 C288.8199,23.409 288.4539,24.326 287.7119,25.077 C286.9769,25.828 286.0719,26.204 285.0159,26.204 L277.8629,26.204 L277.8629,44.164 C277.8629,49.063 280.3269,51.516 285.2569,51.516 Z M329.2276,18.973 C329.5786,19.331 329.8516,19.741 330.0626,20.213 C330.2706,20.68 330.3806,21.174 330.3806,21.689 C330.3806,22.231 330.2426,22.811 329.9706,23.427 L308.7176,74.398 C308.3996,75.161 307.9026,75.786 307.2396,76.262 C306.5746,76.743 305.8456,76.982 305.0596,76.982 C303.9516,76.982 303.0336,76.616 302.3036,75.874 C301.5796,75.136 301.2116,74.21 301.2116,73.105 C301.2116,72.512 301.3376,71.943 301.5876,71.403 L308.2726,55.399 L294.9726,23.427 C294.7236,22.859 294.5966,22.283 294.5966,21.689 C294.5966,21.174 294.6976,20.68 294.8936,20.213 C295.0886,19.741 295.3626,19.331 295.7066,18.973 C296.0506,18.614 296.4576,18.339 296.9246,18.144 C297.3916,17.942 297.8966,17.846 298.4436,17.846 C299.2046,17.846 299.9196,18.064 300.5836,18.492 C301.2516,18.925 301.7576,19.558 302.1026,20.396 L312.4876,45.199 L322.8746,20.322 C323.1676,19.58 323.5896,18.986 324.1496,18.528 C324.7056,18.074 325.4866,17.846 326.4956,17.846 C327.0366,17.846 327.5386,17.942 328.0136,18.144 C328.4766,18.339 328.8826,18.614 329.2276,18.973 Z M390.671,22.7054 C392.16,24.1954 393.342,25.9454 394.216,27.9544 C395.094,29.9624 395.531,32.0894 395.531,34.3294 L395.531,55.3634 C395.531,56.4464 395.154,57.3634 394.405,58.1144 C393.653,58.8664 392.744,59.2404 391.689,59.2404 C390.606,59.2404 389.692,58.8664 388.955,58.1144 C388.212,57.3634 387.84,56.4464 387.84,55.3634 L387.84,34.3294 C387.84,33.1464 387.614,32.0244 387.155,30.9674 C386.706,29.9104 386.081,28.9764 385.29,28.1774 C384.504,27.3784 383.574,26.7404 382.5,26.2734 C381.43,25.8064 380.278,25.5704 379.046,25.5704 C377.836,25.5704 376.701,25.8064 375.645,26.2734 C374.588,26.7404 373.653,27.3694 372.856,28.1554 C372.056,28.9454 371.427,29.8714 370.968,30.9284 C370.513,31.9894 370.286,33.1244 370.286,34.3294 L370.286,55.3634 C370.286,56.4464 369.906,57.3634 369.161,58.1144 C368.405,58.8664 367.501,59.2404 366.444,59.2404 C365.352,59.2404 364.441,58.8664 363.691,58.1144 C362.939,57.3634 362.564,56.4464 362.564,55.3634 L362.564,34.3294 C362.564,33.1244 362.326,31.9894 361.86,30.9284 C361.393,29.8714 360.763,28.9454 359.972,28.1554 C359.184,27.3694 358.261,26.7404 357.2,26.2734 C356.143,25.8064 355.009,25.5704 353.804,25.5704 C352.594,25.5704 351.462,25.7974 350.402,26.2564 C349.341,26.7104 348.411,27.3394 347.608,28.1374 C346.808,28.9414 346.184,29.8714 345.725,30.9284 C345.271,31.9894 345.044,33.1244 345.044,34.3294 L345.044,55.3634 C345.044,56.4464 344.664,57.3634 343.916,58.1144 C343.162,58.8664 342.253,59.2404 341.196,59.2404 C340.114,59.2404 339.197,58.8664 338.446,58.1144 C337.691,57.3634 337.317,56.4464 337.317,55.3634 L337.317,21.6884 C337.317,20.6314 337.691,19.7274 338.446,18.9724 C339.197,18.2214 340.102,17.8464 341.162,17.8464 C342.023,17.8464 342.787,18.0864 343.455,18.5664 C344.118,19.0464 344.573,19.6804 344.82,20.4704 C347.459,18.7194 350.45,17.8464 353.804,17.8464 C356.261,17.8464 358.579,18.3354 360.751,19.3044 C362.916,20.2824 364.817,21.7544 366.444,23.7184 C369.867,19.8064 374.069,17.8464 379.046,17.8464 C381.287,17.8464 383.414,18.2824 385.422,19.1604 C387.426,20.0334 389.181,21.2174 390.671,22.7054 Z M480.3331,18.8587 C481.3771,19.2427 482.2461,19.7667 482.9351,20.4307 C483.6251,21.0947 483.9711,21.9597 483.9711,23.0207 C483.9711,23.5617 483.8661,24.0637 483.6601,24.5357 C483.4461,25.0027 483.1721,25.4137 482.8271,25.7717 C482.4831,26.1297 482.0761,26.4087 481.6081,26.6057 C481.1371,26.8017 480.6301,26.9017 480.0921,26.9017 C479.6221,26.9017 479.0811,26.7617 478.4661,26.4917 C476.9111,25.8757 475.2241,25.5707 473.4001,25.5707 C471.6001,25.5707 469.9151,25.9067 468.3391,26.5827 C466.7591,27.2597 465.3861,28.1857 464.2161,29.3557 C463.0451,30.5267 462.1211,31.9027 461.4441,33.4787 C460.7671,35.0597 460.4301,36.7447 460.4301,38.5437 L460.4301,55.3987 C460.4301,56.4567 460.0511,57.3637 459.3001,58.1147 C458.5491,58.8657 457.6451,59.2407 456.5841,59.2407 C455.5021,59.2407 454.5801,58.8657 453.8291,58.1147 C453.0781,57.3637 452.7021,56.4567 452.7021,55.3987 L452.7021,21.6887 C452.7021,20.6277 453.0781,19.7237 453.8291,18.9727 C454.5801,18.2217 455.5021,17.8457 456.5841,17.8457 C457.6451,17.8457 458.5491,18.2217 459.3001,18.9727 C460.0511,19.7237 460.4301,20.6277 460.4301,21.6887 L460.4301,22.4267 C462.2771,20.9507 464.2811,19.8157 466.4571,19.0247 C468.6231,18.2387 470.9371,17.8457 473.4001,17.8457 C474.4821,17.8457 475.6481,17.9207 476.8921,18.0687 C478.1411,18.2127 479.2821,18.4787 480.3331,18.8587 Z M523.3526,52.5995 C524.0696,53.3855 524.4266,54.2865 524.4266,55.2985 C524.4266,55.8135 524.3236,56.3075 524.1136,56.7745 C523.9036,57.2415 523.6236,57.6525 523.2796,58.0145 C522.9376,58.3725 522.5286,58.6485 522.0606,58.8445 C521.5936,59.0405 521.0866,59.1405 520.5456,59.1405 C519.5096,59.1405 518.6516,58.8045 517.9606,58.1415 L501.4766,39.6265 L498.8196,42.0725 L498.5546,42.3205 L498.5546,55.2595 C498.5546,56.3205 498.1796,57.2275 497.4286,57.9975 C496.6776,58.7615 495.7696,59.1405 494.7126,59.1405 C493.6266,59.1405 492.7126,58.7615 491.9576,57.9975 C491.2106,57.2275 490.8316,56.3205 490.8316,55.2595 L490.8316,3.8825 C490.8316,2.7995 491.2106,1.8825 491.9576,1.1305 C492.7126,0.3805 493.6266,0.0005 494.7126,0.0005 C495.7696,0.0005 496.6776,0.3805 497.4286,1.1305 C498.1796,1.8825 498.5546,2.7995 498.5546,3.8825 L498.5546,31.8585 L512.6506,18.7585 C513.1936,18.2695 513.8386,17.9505 514.5926,17.8245 C515.1266,17.7325 515.6376,17.7455 516.1296,17.8595 C516.6276,17.9765 517.0796,18.1785 517.4796,18.4705 C517.8816,18.7675 518.2206,19.1255 518.5056,19.5495 C518.7936,19.9775 518.9826,20.4445 519.0706,20.9555 C519.3046,22.3135 518.9966,23.4055 518.1356,24.2305 L507.2136,34.3345 L523.3526,52.5995 Z M435.1622,43.6532 C435.8422,42.0802 436.1802,40.4082 436.1802,38.6272 C436.1802,36.8492 435.8422,35.1732 435.1622,33.6052 C434.4802,32.0332 433.5552,30.6582 432.3792,29.4702 C431.2052,28.2872 429.8302,27.3442 428.2502,26.6532 C426.6632,25.9642 424.9742,25.6142 423.1662,25.6142 C421.3402,25.6142 419.6332,25.9642 418.0532,26.6532 C416.4732,27.3442 415.0982,28.2782 413.9342,29.4522 C412.7732,30.6272 411.8532,32.0022 411.1712,33.5882 C410.4942,35.1682 410.1542,36.8492 410.1542,38.6272 C410.1542,40.4082 410.4942,42.0892 411.1712,43.6702 C411.8532,45.2512 412.7732,46.6302 413.9342,47.8052 C415.0982,48.9752 416.4732,49.9092 418.0532,50.6042 C419.6332,51.2942 421.3402,51.6392 423.1662,51.6392 C424.9742,51.6392 426.6632,51.2942 428.2502,50.6042 C429.8302,49.9092 431.2052,48.9712 432.3792,47.7842 C433.5552,46.6002 434.4802,45.2212 435.1622,43.6532 Z M440.0732,17.8462 C441.1352,17.8462 442.0422,18.2222 442.7992,18.9772 C443.5552,19.7282 443.9292,20.6372 443.9292,21.7022 L443.9292,38.6052 L443.9292,38.6272 L443.9292,55.5342 C443.9292,56.5962 443.5552,57.5032 442.7992,58.2592 C442.0422,59.0142 441.1352,59.3902 440.0732,59.3902 C438.9872,59.3902 438.0642,59.0142 437.3092,58.2592 C436.5582,57.5032 436.1802,56.5962 436.1802,55.5342 L436.1802,54.7912 C434.3272,56.2772 432.3142,57.4122 430.1412,58.2022 C427.9612,58.9932 425.6382,59.3902 423.1662,59.3902 C417.4342,59.3902 412.5382,57.3632 408.4862,53.3072 C404.4342,49.2552 402.4032,44.3602 402.4032,38.6272 C402.4032,32.8932 404.4342,28.0032 408.4862,23.9462 C412.5382,19.8942 417.4342,17.8682 423.1662,17.8682 C425.6472,17.8682 427.9712,18.2792 430.1522,19.0512 L430.1412,19.0302 C430.2272,19.0642 430.3102,19.1042 430.3972,19.1392 C430.8472,19.3052 431.2882,19.4842 431.7242,19.6842 C431.7372,19.6892 431.7562,19.6972 431.7682,19.7062 C433.0512,20.2962 434.2832,21.0292 435.4542,21.9122 C435.6982,22.0862 435.9432,22.2522 436.1802,22.4442 L436.1802,21.7022 C436.1802,20.6372 436.5582,19.7282 437.3092,18.9772 C438.0642,18.2222 438.9872,17.8462 440.0732,17.8462 Z" id="Combined-Shape" fill="#FFFFFF"></path>
    </g>
</svg>